<svg width="1280" height="720" viewBox="0 0 1280 720" fill="none" xmlns="http://www.w3.org/2000/svg">
  <defs>
    <linearGradient id="bg" x1="140" y1="80" x2="1140" y2="640" gradientUnits="userSpaceOnUse">
      <stop stop-color="#F2EFE7"/>
      <stop offset="1" stop-color="#E0D7C6"/>
    </linearGradient>
    <linearGradient id="panel" x1="260" y1="120" x2="1020" y2="620" gradientUnits="userSpaceOnUse">
      <stop stop-color="#FFFDF8"/>
      <stop offset="1" stop-color="#F5F0E4"/>
    </linearGradient>
    <filter id="shadow" x="180" y="70" width="920" height="580" filterUnits="userSpaceOnUse" color-interpolation-filters="sRGB">
      <feFlood flood-opacity="0" result="BackgroundImageFix"/>
      <feColorMatrix in="SourceAlpha" type="matrix" values="0 0 0 0 0 0 0 0 0 0 0 0 0 0 0 0 0 0 127 0" result="hardAlpha"/>
      <feOffset dy="18"/>
      <feGaussianBlur stdDeviation="20"/>
      <feComposite in2="hardAlpha" operator="out"/>
      <feColorMatrix type="matrix" values="0 0 0 0 0.168627 0 0 0 0 0.133333 0 0 0 0 0.0784314 0 0 0 0.18 0"/>
      <feBlend mode="normal" in2="BackgroundImageFix" result="effect1_dropShadow_1_1"/>
      <feBlend mode="normal" in="SourceGraphic" in2="effect1_dropShadow_1_1" result="shape"/>
    </filter>
  </defs>

  <rect width="1280" height="720" rx="32" fill="url(#bg)"/>
  <circle cx="147" cy="122" r="90" fill="#D76F30" fill-opacity="0.12"/>
  <circle cx="1112" cy="600" r="120" fill="#254B3F" fill-opacity="0.1"/>

  <g filter="url(#shadow)">
    <rect x="220" y="100" width="840" height="520" rx="28" fill="url(#panel)"/>
  </g>

  <rect x="252" y="132" width="244" height="456" rx="22" fill="#18352D"/>
  <rect x="528" y="132" width="500" height="456" rx="22" fill="#FCFAF4" stroke="#DDD3C3" stroke-width="2"/>

  <text x="288" y="188" fill="#FFF7EA" font-size="30" font-family="Verdana, sans-serif" font-weight="700">WebApp V2</text>
  <text x="288" y="220" fill="#C6D6CF" font-size="16" font-family="Verdana, sans-serif">Dashboard personnel</text>

  <rect x="288" y="262" width="172" height="56" rx="18" fill="#D76F30"/>
  <circle cx="320" cy="290" r="16" fill="#FFF2E6"/>
  <text x="346" y="297" fill="#FFF8EE" font-size="18" font-family="Verdana, sans-serif" font-weight="700">Plex</text>

  <rect x="288" y="334" width="172" height="56" rx="18" fill="#22483D"/>
  <circle cx="320" cy="362" r="16" fill="#DAE8E1"/>
  <text x="346" y="369" fill="#F4F8F6" font-size="18" font-family="Verdana, sans-serif" font-weight="700">Radarr</text>

  <rect x="288" y="406" width="172" height="56" rx="18" fill="#22483D"/>
  <circle cx="320" cy="434" r="16" fill="#DAE8E1"/>
  <text x="346" y="441" fill="#F4F8F6" font-size="18" font-family="Verdana, sans-serif" font-weight="700">Home</text>

  <rect x="288" y="500" width="110" height="42" rx="14" fill="#F0E7D7"/>
  <text x="316" y="527" fill="#18352D" font-size="16" font-family="Verdana, sans-serif" font-weight="700">Nouvelle</text>

  <text x="566" y="186" fill="#18352D" font-size="28" font-family="Verdana, sans-serif" font-weight="700">Un point d'entree unique</text>
  <text x="566" y="220" fill="#635A4C" font-size="17" font-family="Verdana, sans-serif">Apps perso, auth locale, iframe ou onglet externe.</text>

  <rect x="566" y="264" width="424" height="240" rx="20" fill="#EDE5D6"/>
  <rect x="594" y="292" width="368" height="24" rx="12" fill="#D1C5B2"/>
  <rect x="594" y="334" width="150" height="132" rx="18" fill="#D76F30"/>
  <rect x="760" y="334" width="202" height="60" rx="18" fill="#FFF8EE"/>
  <rect x="760" y="406" width="202" height="60" rx="18" fill="#FFF8EE"/>
  <text x="784" y="371" fill="#18352D" font-size="18" font-family="Verdana, sans-serif" font-weight="700">Import / export JSON</text>
  <text x="784" y="443" fill="#18352D" font-size="18" font-family="Verdana, sans-serif" font-weight="700">Drag and drop</text>

  <rect x="566" y="526" width="126" height="38" rx="14" fill="#18352D"/>
  <text x="596" y="550" fill="#F7F3EA" font-size="16" font-family="Verdana, sans-serif" font-weight="700">React + Vite</text>
  <rect x="706" y="526" width="138" height="38" rx="14" fill="#D76F30"/>
  <text x="735" y="550" fill="#FFF7EF" font-size="16" font-family="Verdana, sans-serif" font-weight="700">Fastify + SQLite</text>
</svg>
